<svg xmlns="http://www.w3.org/2000/svg" xmlns:xlink="http://www.w3.org/1999/xlink" width="1037" zoomAndPan="magnify" viewBox="0 0 777.75 777.749999" height="1037" preserveAspectRatio="xMidYMid meet" version="1.2"><defs><clipPath id="6aec51acd0"><path d="M 0 0 L 777.160156 0 L 777.160156 777.160156 L 0 777.160156 Z M 0 0 "/></clipPath><clipPath id="69cfbc02d3"><path d="M 388.582031 0 C 173.972656 0 0 173.972656 0 388.582031 C 0 603.1875 173.972656 777.160156 388.582031 777.160156 C 603.1875 777.160156 777.160156 603.1875 777.160156 388.582031 C 777.160156 173.972656 603.1875 0 388.582031 0 Z M 388.582031 0 "/></clipPath><clipPath id="3dc0f60f3d"><path d="M 199 176 L 577.984375 176 L 577.984375 601 L 199 601 Z M 199 176 "/></clipPath><clipPath id="f44989543c"><path d="M 414.503906 183.265625 L 552.0625 263.300781 C 568.113281 272.636719 577.984375 289.804688 577.984375 308.371094 L 577.984375 468.789062 C 577.984375 487.355469 568.113281 504.523438 552.0625 513.863281 L 414.503906 593.894531 C 398.480469 603.21875 378.683594 603.21875 362.660156 593.894531 L 225.097656 513.863281 C 209.050781 504.523438 199.175781 487.355469 199.175781 468.789062 L 199.175781 308.371094 C 199.175781 289.804688 209.050781 272.636719 225.097656 263.300781 L 362.660156 183.265625 C 378.683594 173.941406 398.480469 173.941406 414.503906 183.265625 Z M 414.503906 183.265625 "/></clipPath></defs><g id="1da7f4fcad"><g clip-rule="nonzero" clip-path="url(#6aec51acd0)"><g clip-rule="nonzero" clip-path="url(#69cfbc02d3)"><path style=" stroke:none;fill-rule:nonzero;fill:#000000;fill-opacity:1;" d="M 0 0 L 777.160156 0 L 777.160156 777.160156 L 0 777.160156 Z M 0 0 "/></g></g><g clip-rule="nonzero" clip-path="url(#3dc0f60f3d)"><g clip-rule="nonzero" clip-path="url(#f44989543c)"><path style=" stroke:none;fill-rule:nonzero;fill:#ffffff;fill-opacity:1;" d="M 199.175781 168.183594 L 577.984375 168.183594 L 577.984375 609.140625 L 199.175781 609.140625 Z M 199.175781 168.183594 "/></g></g></g></svg>